<svg xmlns="http://www.w3.org/2000/svg" xmlns:xlink="http://www.w3.org/1999/xlink" width="100%" zoomAndPan="magnify" viewBox="0 0 150 52.499999" height="100%" preserveAspectRatio="xMidYMid meet" version="1.0"><defs><g><g id="id1"/></g><clipPath id="id2"><path d="M 20.007812 9.742188 L 46.75 9.742188 L 46.75 42.433594 L 20.007812 42.433594 Z M 20.007812 9.742188 " clip-rule="nonzero"/></clipPath></defs><path fill="rgb(100%, 100%, 100%)" d="M 29.539062 18.421875 L 32.90625 20.273438 C 33.21875 20.441406 33.53125 20.441406 33.839844 20.273438 L 37.210938 18.421875 C 37.546875 18.230469 37.714844 17.945312 37.714844 17.554688 C 37.714844 17.167969 37.546875 16.878906 37.210938 16.691406 L 33.839844 14.84375 C 33.53125 14.671875 33.21875 14.671875 32.90625 14.84375 L 29.539062 16.691406 C 29.203125 16.878906 29.035156 17.167969 29.035156 17.554688 C 29.035156 17.945312 29.203125 18.230469 29.539062 18.421875 Z M 29.539062 18.421875 " fill-opacity="1" fill-rule="nonzero"/><g clip-path="url(#id2)"><path fill="rgb(100%, 100%, 100%)" d="M 46.5625 35.136719 C 46.570312 35.128906 46.574219 35.117188 46.582031 35.109375 C 46.597656 35.074219 46.613281 35.042969 46.628906 35.007812 C 46.628906 35.007812 46.628906 35.003906 46.628906 35.003906 C 46.644531 34.964844 46.65625 34.929688 46.667969 34.890625 L 46.675781 34.859375 C 46.683594 34.832031 46.6875 34.800781 46.691406 34.773438 C 46.691406 34.761719 46.691406 34.75 46.699219 34.734375 C 46.699219 34.699219 46.707031 34.664062 46.707031 34.628906 L 46.707031 17.554688 C 46.707031 17.511719 46.703125 17.472656 46.699219 17.433594 C 46.699219 17.421875 46.699219 17.410156 46.699219 17.402344 C 46.699219 17.371094 46.6875 17.339844 46.679688 17.308594 L 46.671875 17.28125 C 46.648438 17.207031 46.617188 17.132812 46.574219 17.0625 L 46.5625 17.039062 C 46.542969 17.011719 46.527344 16.984375 46.507812 16.960938 L 46.492188 16.9375 C 46.46875 16.90625 46.441406 16.878906 46.414062 16.851562 L 46.394531 16.835938 C 46.375 16.8125 46.347656 16.792969 46.324219 16.773438 L 46.296875 16.753906 C 46.265625 16.730469 46.230469 16.707031 46.191406 16.6875 L 33.839844 9.902344 C 33.53125 9.730469 33.21875 9.730469 32.90625 9.902344 L 20.550781 16.691406 C 20.515625 16.710938 20.480469 16.734375 20.449219 16.757812 L 20.421875 16.777344 C 20.398438 16.796875 20.375 16.816406 20.351562 16.839844 L 20.332031 16.855469 C 20.304688 16.882812 20.277344 16.910156 20.253906 16.941406 L 20.238281 16.960938 C 20.21875 16.988281 20.203125 17.015625 20.1875 17.039062 L 20.171875 17.066406 C 20.132812 17.136719 20.101562 17.207031 20.078125 17.285156 C 20.078125 17.292969 20.078125 17.300781 20.070312 17.3125 C 20.0625 17.339844 20.058594 17.371094 20.050781 17.40625 C 20.050781 17.414062 20.050781 17.425781 20.046875 17.433594 C 20.042969 17.476562 20.039062 17.515625 20.039062 17.554688 L 20.039062 34.632812 C 20.039062 34.667969 20.039062 34.703125 20.046875 34.738281 C 20.046875 34.75 20.046875 34.761719 20.054688 34.777344 C 20.058594 34.804688 20.0625 34.832031 20.070312 34.859375 L 20.078125 34.894531 C 20.089844 34.933594 20.101562 34.96875 20.117188 35.003906 C 20.117188 35.007812 20.117188 35.011719 20.117188 35.011719 C 20.132812 35.046875 20.148438 35.078125 20.164062 35.109375 C 20.171875 35.121094 20.179688 35.128906 20.183594 35.140625 C 20.191406 35.152344 20.214844 35.1875 20.230469 35.210938 L 20.253906 35.238281 C 20.277344 35.269531 20.300781 35.296875 20.328125 35.320312 L 20.351562 35.34375 C 20.371094 35.363281 20.394531 35.382812 20.417969 35.398438 L 20.445312 35.421875 C 20.476562 35.445312 20.507812 35.464844 20.542969 35.484375 L 32.90625 42.273438 C 33.21875 42.445312 33.53125 42.445312 33.839844 42.273438 L 46.203125 35.484375 L 46.207031 35.484375 C 46.238281 35.464844 46.269531 35.445312 46.300781 35.421875 L 46.332031 35.402344 C 46.351562 35.382812 46.375 35.363281 46.394531 35.347656 L 46.421875 35.324219 C 46.445312 35.296875 46.472656 35.269531 46.496094 35.242188 L 46.515625 35.210938 C 46.53125 35.1875 46.546875 35.164062 46.5625 35.136719 Z M 37.519531 29.480469 L 33.375 31.757812 L 29.226562 29.480469 L 23.050781 26.089844 L 28.773438 22.941406 L 32.90625 25.210938 C 33.214844 25.382812 33.527344 25.382812 33.839844 25.210938 L 37.96875 22.941406 L 43.699219 26.089844 L 37.523438 29.480469 Z M 21.988281 19.214844 L 26.738281 21.828125 L 21.988281 24.4375 Z M 21.988281 27.75 L 26.738281 30.359375 L 21.988281 32.96875 Z M 44.761719 24.4375 L 40.011719 21.824219 L 44.761719 19.210938 Z M 44.761719 27.75 L 44.761719 32.96875 L 40.011719 30.359375 Z M 33.375 11.882812 L 43.695312 17.554688 L 37.523438 20.949219 L 33.375 23.226562 L 29.226562 20.945312 L 23.050781 17.554688 Z M 33.375 40.292969 L 23.050781 34.621094 L 28.773438 31.472656 L 32.90625 33.742188 C 33.214844 33.914062 33.527344 33.914062 33.839844 33.742188 L 37.96875 31.472656 L 43.695312 34.621094 Z M 33.375 40.292969 " fill-opacity="1" fill-rule="nonzero"/></g><g fill="rgb(100%, 100%, 100%)" fill-opacity="1"><g transform="translate(48.215984, 26.088988)"><g><path d="M 3.71875 -2.203125 C 4.167969 -2.457031 4.453125 -2.9375 4.453125 -3.589844 C 4.453125 -4.707031 3.773438 -5.140625 2.828125 -5.140625 L 0.402344 -5.140625 L 0.402344 0 L 1.609375 0 L 1.609375 -1.980469 L 2.585938 -1.980469 L 3.335938 0 L 4.605469 0 Z M 2.660156 -4.0625 C 3.050781 -4.0625 3.261719 -3.886719 3.261719 -3.550781 C 3.261719 -3.199219 3.050781 -3.023438 2.660156 -3.023438 L 1.609375 -3.023438 L 1.609375 -4.0625 Z M 2.660156 -4.0625 "/></g></g></g><g fill="rgb(100%, 100%, 100%)" fill-opacity="1"><g transform="translate(54.237862, 26.088988)"><g><path d="M 3.050781 0 L 3.050781 -2.039062 L 4.890625 -5.140625 L 3.484375 -5.140625 L 2.417969 -3.207031 L 1.355469 -5.140625 L -0.0546875 -5.140625 L 1.785156 -2.039062 L 1.785156 0 Z M 3.050781 0 "/></g></g></g><g fill="rgb(100%, 100%, 100%)" fill-opacity="1"><g transform="translate(60.327096, 26.088988)"><g><path d="M 1.292969 0 L 1.570312 -0.921875 L 3.28125 -0.921875 L 3.554688 0 L 4.835938 0 L 3.078125 -5.140625 L 1.773438 -5.140625 L 0.0117188 0 Z M 2.425781 -3.800781 L 2.964844 -1.96875 L 1.886719 -1.96875 Z M 2.425781 -3.800781 "/></g></g></g><g fill="rgb(100%, 100%, 100%)" fill-opacity="1"><g transform="translate(66.429802, 26.088988)"><g><path d="M 1.609375 0 L 1.609375 -3.140625 L 3.582031 0 L 4.808594 0 L 4.808594 -5.140625 L 3.605469 -5.140625 L 3.605469 -2.019531 L 1.628906 -5.140625 L 0.402344 -5.140625 L 0.402344 0 Z M 1.609375 0 "/></g></g></g><g fill="rgb(100%, 100%, 100%)" fill-opacity="1"><g transform="translate(72.896252, 26.088988)"><g/></g></g><g fill="rgb(100%, 100%, 100%)" fill-opacity="1"><g transform="translate(75.900453, 26.088988)"><g><path d="M 2.78125 0.113281 C 4.136719 0.113281 4.925781 -0.632812 5.058594 -1.746094 L 3.738281 -1.746094 C 3.65625 -1.207031 3.265625 -0.964844 2.753906 -0.964844 C 1.941406 -0.964844 1.488281 -1.597656 1.488281 -2.574219 C 1.488281 -3.542969 1.941406 -4.167969 2.753906 -4.167969 C 3.265625 -4.167969 3.664062 -3.925781 3.738281 -3.402344 L 5.058594 -3.402344 C 4.925781 -4.507812 4.136719 -5.246094 2.78125 -5.246094 C 1.023438 -5.246094 0.214844 -4.007812 0.214844 -2.574219 C 0.214844 -1.136719 1.023438 0.113281 2.78125 0.113281 Z M 2.78125 0.113281 "/></g></g></g><g fill="rgb(100%, 100%, 100%)" fill-opacity="1"><g transform="translate(82.40058, 26.088988)"><g><path d="M 2.78125 0.113281 C 4.527344 0.113281 5.339844 -1.136719 5.339844 -2.574219 C 5.339844 -4.007812 4.527344 -5.246094 2.78125 -5.246094 C 1.023438 -5.246094 0.214844 -4.007812 0.214844 -2.574219 C 0.214844 -1.136719 1.023438 0.113281 2.78125 0.113281 Z M 2.78125 -0.964844 C 1.972656 -0.964844 1.488281 -1.597656 1.488281 -2.574219 C 1.488281 -3.542969 1.972656 -4.167969 2.78125 -4.167969 C 3.589844 -4.167969 4.070312 -3.542969 4.070312 -2.574219 C 4.070312 -1.597656 3.589844 -0.964844 2.78125 -0.964844 Z M 2.78125 -0.964844 "/></g></g></g><g fill="rgb(100%, 100%, 100%)" fill-opacity="1"><g transform="translate(89.217289, 26.088988)"><g><path d="M 1.609375 0 L 1.609375 -3.140625 L 3.582031 0 L 4.808594 0 L 4.808594 -5.140625 L 3.605469 -5.140625 L 3.605469 -2.019531 L 1.628906 -5.140625 L 0.402344 -5.140625 L 0.402344 0 Z M 1.609375 0 "/></g></g></g><g fill="rgb(100%, 100%, 100%)" fill-opacity="1"><g transform="translate(95.683738, 26.088988)"><g><path d="M 2.707031 0 L 2.707031 -4.0625 L 4.15625 -4.0625 L 4.15625 -5.140625 L 0.0546875 -5.140625 L 0.0546875 -4.0625 L 1.503906 -4.0625 L 1.503906 0 Z M 2.707031 0 "/></g></g></g><g fill="rgb(100%, 100%, 100%)" fill-opacity="1"><g transform="translate(101.146533, 26.088988)"><g><path d="M 3.914062 0 L 3.914062 -1.078125 L 1.609375 -1.078125 L 1.609375 -2.035156 L 3.691406 -2.035156 L 3.691406 -3.105469 L 1.609375 -3.105469 L 1.609375 -4.0625 L 3.914062 -4.0625 L 3.914062 -5.140625 L 0.402344 -5.140625 L 0.402344 0 Z M 3.914062 0 "/></g></g></g><g fill="rgb(100%, 100%, 100%)" fill-opacity="1"><g transform="translate(106.602596, 26.088988)"><g><path d="M 1.609375 0 L 1.609375 -3.140625 L 3.582031 0 L 4.808594 0 L 4.808594 -5.140625 L 3.605469 -5.140625 L 3.605469 -2.019531 L 1.628906 -5.140625 L 0.402344 -5.140625 L 0.402344 0 Z M 1.609375 0 "/></g></g></g><g fill="rgb(100%, 100%, 100%)" fill-opacity="1"><g transform="translate(113.069045, 26.088988)"><g><path d="M 2.707031 0 L 2.707031 -4.0625 L 4.15625 -4.0625 L 4.15625 -5.140625 L 0.0546875 -5.140625 L 0.0546875 -4.0625 L 1.503906 -4.0625 L 1.503906 0 Z M 2.707031 0 "/></g></g></g><g fill="rgb(100%, 100%, 100%)" fill-opacity="1"><g transform="translate(118.53184, 26.088988)"><g><path d="M 2.78125 0.113281 C 4.527344 0.113281 5.339844 -1.136719 5.339844 -2.574219 C 5.339844 -4.007812 4.527344 -5.246094 2.78125 -5.246094 C 1.023438 -5.246094 0.214844 -4.007812 0.214844 -2.574219 C 0.214844 -1.136719 1.023438 0.113281 2.78125 0.113281 Z M 2.78125 -0.964844 C 1.972656 -0.964844 1.488281 -1.597656 1.488281 -2.574219 C 1.488281 -3.542969 1.972656 -4.167969 2.78125 -4.167969 C 3.589844 -4.167969 4.070312 -3.542969 4.070312 -2.574219 C 4.070312 -1.597656 3.589844 -0.964844 2.78125 -0.964844 Z M 2.78125 -0.964844 "/></g></g></g><g fill="rgb(100%, 100%, 100%)" fill-opacity="1"><g transform="translate(48.215984, 33.009742)"><g><path d="M 2.9375 -1.28125 C 2.9375 -0.851562 2.789062 -0.519531 2.5 -0.28125 C 2.207031 -0.0390625 1.847656 0.078125 1.421875 0.078125 C 0.878906 0.078125 0.414062 -0.0351562 0.03125 -0.265625 L 0.296875 -0.9375 C 0.609375 -0.644531 0.957031 -0.5 1.34375 -0.5 C 1.539062 -0.5 1.710938 -0.550781 1.859375 -0.65625 C 2.003906 -0.769531 2.078125 -0.925781 2.078125 -1.125 C 2.078125 -1.269531 2.03125 -1.394531 1.9375 -1.5 C 1.84375 -1.613281 1.722656 -1.703125 1.578125 -1.765625 C 1.441406 -1.828125 1.289062 -1.898438 1.125 -1.984375 C 0.957031 -2.078125 0.800781 -2.164062 0.65625 -2.25 C 0.519531 -2.332031 0.40625 -2.453125 0.3125 -2.609375 C 0.21875 -2.773438 0.171875 -2.960938 0.171875 -3.171875 C 0.171875 -3.578125 0.3125 -3.882812 0.59375 -4.09375 C 0.875 -4.3125 1.25 -4.421875 1.71875 -4.421875 C 1.894531 -4.421875 2.097656 -4.382812 2.328125 -4.3125 C 2.566406 -4.238281 2.75 -4.15625 2.875 -4.0625 L 2.46875 -3.546875 C 2.238281 -3.742188 1.960938 -3.84375 1.640625 -3.84375 C 1.472656 -3.84375 1.328125 -3.800781 1.203125 -3.71875 C 1.085938 -3.632812 1.03125 -3.507812 1.03125 -3.34375 C 1.03125 -3.207031 1.078125 -3.085938 1.171875 -2.984375 C 1.265625 -2.878906 1.378906 -2.796875 1.515625 -2.734375 C 1.660156 -2.671875 1.816406 -2.59375 1.984375 -2.5 C 2.148438 -2.414062 2.300781 -2.328125 2.4375 -2.234375 C 2.582031 -2.148438 2.703125 -2.023438 2.796875 -1.859375 C 2.890625 -1.691406 2.9375 -1.5 2.9375 -1.28125 Z M 2.9375 -1.28125 "/></g></g></g><g fill="rgb(100%, 100%, 100%)" fill-opacity="1"><g transform="translate(52.043557, 33.009742)"><g><path d="M 4.265625 -2.171875 C 4.265625 -1.515625 4.078125 -0.976562 3.703125 -0.5625 C 3.328125 -0.144531 2.816406 0.0625 2.171875 0.0625 C 1.523438 0.0625 1.019531 -0.144531 0.65625 -0.5625 C 0.289062 -0.988281 0.109375 -1.523438 0.109375 -2.171875 C 0.109375 -2.835938 0.289062 -3.375 0.65625 -3.78125 C 1.019531 -4.195312 1.523438 -4.40625 2.171875 -4.40625 C 2.835938 -4.40625 3.351562 -4.195312 3.71875 -3.78125 C 4.082031 -3.375 4.265625 -2.835938 4.265625 -2.171875 Z M 3.390625 -2.140625 C 3.390625 -2.347656 3.367188 -2.546875 3.328125 -2.734375 C 3.285156 -2.921875 3.21875 -3.097656 3.125 -3.265625 C 3.039062 -3.441406 2.914062 -3.582031 2.75 -3.6875 C 2.59375 -3.789062 2.398438 -3.84375 2.171875 -3.84375 C 1.960938 -3.84375 1.773438 -3.796875 1.609375 -3.703125 C 1.441406 -3.609375 1.316406 -3.476562 1.234375 -3.3125 C 1.148438 -3.144531 1.085938 -2.96875 1.046875 -2.78125 C 1.003906 -2.601562 0.984375 -2.410156 0.984375 -2.203125 C 0.984375 -1.992188 1.003906 -1.796875 1.046875 -1.609375 C 1.085938 -1.421875 1.148438 -1.238281 1.234375 -1.0625 C 1.316406 -0.894531 1.441406 -0.757812 1.609375 -0.65625 C 1.773438 -0.550781 1.96875 -0.5 2.1875 -0.5 C 2.40625 -0.5 2.59375 -0.546875 2.75 -0.640625 C 2.914062 -0.742188 3.039062 -0.875 3.125 -1.03125 C 3.21875 -1.195312 3.285156 -1.367188 3.328125 -1.546875 C 3.367188 -1.734375 3.390625 -1.929688 3.390625 -2.140625 Z M 3.390625 -2.140625 "/></g></g></g><g fill="rgb(100%, 100%, 100%)" fill-opacity="1"><g transform="translate(57.184626, 33.009742)"><g><path d="M 2.859375 -3.765625 L 1.21875 -3.765625 L 1.21875 -2.53125 L 2.484375 -2.53125 L 2.484375 -1.9375 L 1.21875 -1.9375 L 1.21875 0 L 0.390625 0 L 0.390625 -3.984375 C 0.390625 -3.984375 0.382812 -4.007812 0.375 -4.0625 C 0.363281 -4.125 0.347656 -4.179688 0.328125 -4.234375 C 0.316406 -4.296875 0.3125 -4.332031 0.3125 -4.34375 L 2.859375 -4.34375 Z M 2.859375 -3.765625 "/></g></g></g><g fill="rgb(100%, 100%, 100%)" fill-opacity="1"><g transform="translate(60.976536, 33.009742)"><g><path d="M 3.359375 -3.765625 L 2.125 -3.765625 L 2.125 0 L 1.28125 0 L 1.28125 -3.765625 L 0.078125 -3.765625 L 0.078125 -4.34375 L 3.359375 -4.34375 Z M 3.359375 -3.765625 "/></g></g></g><g fill="rgb(100%, 100%, 100%)" fill-opacity="1"><g transform="translate(65.172601, 33.009742)"><g><path d="M 5.390625 -4.34375 L 4.1875 0.015625 L 3.453125 0.015625 C 3.410156 -0.140625 3.335938 -0.394531 3.234375 -0.75 C 3.128906 -1.101562 3.039062 -1.414062 2.96875 -1.6875 C 2.90625 -1.957031 2.84375 -2.210938 2.78125 -2.453125 C 2.726562 -2.691406 2.6875 -2.914062 2.65625 -3.125 C 2.601562 -2.769531 2.535156 -2.441406 2.453125 -2.140625 L 1.875 0.015625 L 1.109375 0.015625 L -0.078125 -4.34375 L 0.734375 -4.34375 C 1.148438 -2.84375 1.378906 -2.003906 1.421875 -1.828125 C 1.472656 -1.617188 1.519531 -1.367188 1.5625 -1.078125 C 1.59375 -1.335938 1.660156 -1.660156 1.765625 -2.046875 L 2.390625 -4.34375 L 3.078125 -4.34375 C 3.128906 -4.164062 3.203125 -3.898438 3.296875 -3.546875 C 3.398438 -3.203125 3.488281 -2.890625 3.5625 -2.609375 C 3.644531 -2.335938 3.71875 -2.078125 3.78125 -1.828125 C 3.820312 -1.628906 3.863281 -1.378906 3.90625 -1.078125 C 3.945312 -1.421875 4.015625 -1.742188 4.109375 -2.046875 L 4.734375 -4.34375 Z M 5.390625 -4.34375 "/></g></g></g><g fill="rgb(100%, 100%, 100%)" fill-opacity="1"><g transform="translate(71.246792, 33.009742)"><g><path d="M 3.734375 0 L 2.859375 0 L 2.421875 -1.25 L 1.140625 -1.25 L 0.703125 0 L 0.015625 0 L 1.546875 -4.34375 L 2.203125 -4.34375 Z M 2.234375 -1.828125 C 2.046875 -2.410156 1.894531 -2.90625 1.78125 -3.3125 C 1.644531 -2.820312 1.5 -2.328125 1.34375 -1.828125 Z M 2.234375 -1.828125 "/></g></g></g><g fill="rgb(100%, 100%, 100%)" fill-opacity="1"><g transform="translate(75.757858, 33.009742)"><g><path d="M 3.65625 0 L 2.734375 0 L 1.53125 -1.9375 L 1.203125 -1.9375 L 1.203125 0 L 0.390625 0 L 0.390625 -3.984375 C 0.390625 -3.992188 0.375 -4.050781 0.34375 -4.15625 C 0.320312 -4.269531 0.304688 -4.332031 0.296875 -4.34375 L 1.796875 -4.34375 C 2.234375 -4.34375 2.585938 -4.25 2.859375 -4.0625 C 3.128906 -3.875 3.265625 -3.570312 3.265625 -3.15625 C 3.265625 -2.914062 3.171875 -2.6875 2.984375 -2.46875 C 2.796875 -2.257812 2.578125 -2.125 2.328125 -2.0625 Z M 2.40625 -3.171875 C 2.40625 -3.347656 2.335938 -3.488281 2.203125 -3.59375 C 2.066406 -3.695312 1.90625 -3.75 1.71875 -3.75 L 1.203125 -3.75 L 1.203125 -2.515625 L 1.578125 -2.515625 C 2.128906 -2.515625 2.40625 -2.734375 2.40625 -3.171875 Z M 2.40625 -3.171875 "/></g></g></g><g fill="rgb(100%, 100%, 100%)" fill-opacity="1"><g transform="translate(80.031191, 33.009742)"><g><path d="M 3.046875 0 L 0.390625 0 L 0.390625 -3.984375 L 0.3125 -4.34375 L 3.046875 -4.34375 L 3.046875 -3.765625 L 1.21875 -3.765625 L 1.21875 -2.53125 L 2.609375 -2.53125 L 2.609375 -1.9375 L 1.21875 -1.9375 L 1.21875 -0.59375 L 3.046875 -0.59375 Z M 3.046875 0 "/></g></g></g><g fill="rgb(100%, 100%, 100%)" fill-opacity="1"><g transform="translate(84.054896, 33.009742)"><g/></g></g><g fill="rgb(100%, 100%, 100%)" fill-opacity="1"><g transform="translate(86.182647, 33.009742)"><g><path d="M 4.03125 -2.171875 C 4.03125 -1.503906 3.828125 -0.96875 3.421875 -0.5625 C 3.046875 -0.1875 2.550781 0 1.9375 0 L 0.390625 0 L 0.390625 -3.984375 C 0.390625 -3.984375 0.375 -4.039062 0.34375 -4.15625 C 0.320312 -4.269531 0.304688 -4.332031 0.296875 -4.34375 L 1.953125 -4.34375 C 2.597656 -4.34375 3.101562 -4.144531 3.46875 -3.75 C 3.84375 -3.351562 4.03125 -2.828125 4.03125 -2.171875 Z M 3.15625 -2.140625 C 3.15625 -2.429688 3.113281 -2.691406 3.03125 -2.921875 C 2.957031 -3.148438 2.820312 -3.347656 2.625 -3.515625 C 2.425781 -3.679688 2.179688 -3.765625 1.890625 -3.765625 L 1.21875 -3.765625 L 1.21875 -0.59375 L 1.90625 -0.59375 C 2.125 -0.59375 2.316406 -0.632812 2.484375 -0.71875 C 2.648438 -0.800781 2.78125 -0.914062 2.875 -1.0625 C 2.96875 -1.207031 3.035156 -1.367188 3.078125 -1.546875 C 3.128906 -1.734375 3.15625 -1.929688 3.15625 -2.140625 Z M 3.15625 -2.140625 "/></g></g></g><g fill="rgb(100%, 100%, 100%)" fill-opacity="1"><g transform="translate(91.097871, 33.009742)"><g><path d="M 3.046875 0 L 0.390625 0 L 0.390625 -3.984375 L 0.3125 -4.34375 L 3.046875 -4.34375 L 3.046875 -3.765625 L 1.21875 -3.765625 L 1.21875 -2.53125 L 2.609375 -2.53125 L 2.609375 -1.9375 L 1.21875 -1.9375 L 1.21875 -0.59375 L 3.046875 -0.59375 Z M 3.046875 0 "/></g></g></g><g fill="rgb(100%, 100%, 100%)" fill-opacity="1"><g transform="translate(95.121576, 33.009742)"><g><path d="M 3.578125 -4.34375 L 2.078125 0.015625 L 1.5 0.015625 L 0 -4.34375 L 0.859375 -4.34375 C 1.398438 -2.769531 1.6875 -1.941406 1.71875 -1.859375 C 1.769531 -1.679688 1.828125 -1.457031 1.890625 -1.1875 C 1.941406 -1.445312 2.019531 -1.71875 2.125 -2 L 2.921875 -4.34375 Z M 3.578125 -4.34375 "/></g></g></g><g fill="rgb(100%, 100%, 100%)" fill-opacity="1"><g transform="translate(99.466229, 33.009742)"><g><path d="M 3.046875 0 L 0.390625 0 L 0.390625 -3.984375 L 0.3125 -4.34375 L 3.046875 -4.34375 L 3.046875 -3.765625 L 1.21875 -3.765625 L 1.21875 -2.53125 L 2.609375 -2.53125 L 2.609375 -1.9375 L 1.21875 -1.9375 L 1.21875 -0.59375 L 3.046875 -0.59375 Z M 3.046875 0 "/></g></g></g><g fill="rgb(100%, 100%, 100%)" fill-opacity="1"><g transform="translate(103.489934, 33.009742)"><g><path d="M 2.921875 0 L 0.390625 0 L 0.390625 -3.984375 C 0.390625 -3.984375 0.382812 -4.007812 0.375 -4.0625 C 0.363281 -4.125 0.347656 -4.179688 0.328125 -4.234375 C 0.316406 -4.296875 0.3125 -4.332031 0.3125 -4.34375 L 1.21875 -4.34375 L 1.21875 -0.59375 L 2.921875 -0.59375 Z M 2.921875 0 "/></g></g></g><g fill="rgb(100%, 100%, 100%)" fill-opacity="1"><g transform="translate(107.305621, 33.009742)"><g><path d="M 4.265625 -2.171875 C 4.265625 -1.515625 4.078125 -0.976562 3.703125 -0.5625 C 3.328125 -0.144531 2.816406 0.0625 2.171875 0.0625 C 1.523438 0.0625 1.019531 -0.144531 0.65625 -0.5625 C 0.289062 -0.988281 0.109375 -1.523438 0.109375 -2.171875 C 0.109375 -2.835938 0.289062 -3.375 0.65625 -3.78125 C 1.019531 -4.195312 1.523438 -4.40625 2.171875 -4.40625 C 2.835938 -4.40625 3.351562 -4.195312 3.71875 -3.78125 C 4.082031 -3.375 4.265625 -2.835938 4.265625 -2.171875 Z M 3.390625 -2.140625 C 3.390625 -2.347656 3.367188 -2.546875 3.328125 -2.734375 C 3.285156 -2.921875 3.21875 -3.097656 3.125 -3.265625 C 3.039062 -3.441406 2.914062 -3.582031 2.75 -3.6875 C 2.59375 -3.789062 2.398438 -3.84375 2.171875 -3.84375 C 1.960938 -3.84375 1.773438 -3.796875 1.609375 -3.703125 C 1.441406 -3.609375 1.316406 -3.476562 1.234375 -3.3125 C 1.148438 -3.144531 1.085938 -2.96875 1.046875 -2.78125 C 1.003906 -2.601562 0.984375 -2.410156 0.984375 -2.203125 C 0.984375 -1.992188 1.003906 -1.796875 1.046875 -1.609375 C 1.085938 -1.421875 1.148438 -1.238281 1.234375 -1.0625 C 1.316406 -0.894531 1.441406 -0.757812 1.609375 -0.65625 C 1.773438 -0.550781 1.96875 -0.5 2.1875 -0.5 C 2.40625 -0.5 2.59375 -0.546875 2.75 -0.640625 C 2.914062 -0.742188 3.039062 -0.875 3.125 -1.03125 C 3.21875 -1.195312 3.285156 -1.367188 3.328125 -1.546875 C 3.367188 -1.734375 3.390625 -1.929688 3.390625 -2.140625 Z M 3.390625 -2.140625 "/></g></g></g><g fill="rgb(100%, 100%, 100%)" fill-opacity="1"><g transform="translate(112.446691, 33.009742)"><g><path d="M 3.265625 -3.046875 C 3.265625 -2.617188 3.109375 -2.296875 2.796875 -2.078125 C 2.492188 -1.859375 2.125 -1.75 1.6875 -1.75 L 1.203125 -1.75 L 1.203125 0 L 0.390625 0 L 0.390625 -3.984375 C 0.390625 -3.992188 0.375 -4.050781 0.34375 -4.15625 C 0.320312 -4.269531 0.304688 -4.332031 0.296875 -4.34375 L 1.6875 -4.34375 C 2.15625 -4.34375 2.535156 -4.238281 2.828125 -4.03125 C 3.117188 -3.832031 3.265625 -3.503906 3.265625 -3.046875 Z M 2.390625 -3.046875 C 2.390625 -3.265625 2.332031 -3.4375 2.21875 -3.5625 C 2.101562 -3.695312 1.9375 -3.765625 1.71875 -3.765625 L 1.21875 -3.765625 L 1.21875 -2.328125 L 1.703125 -2.328125 C 1.921875 -2.328125 2.085938 -2.390625 2.203125 -2.515625 C 2.328125 -2.648438 2.390625 -2.828125 2.390625 -3.046875 Z M 2.390625 -3.046875 "/></g></g></g><g fill="rgb(100%, 100%, 100%)" fill-opacity="1"><g transform="translate(116.624927, 33.009742)"><g><path d="M 3.046875 0 L 0.390625 0 L 0.390625 -3.984375 L 0.3125 -4.34375 L 3.046875 -4.34375 L 3.046875 -3.765625 L 1.21875 -3.765625 L 1.21875 -2.53125 L 2.609375 -2.53125 L 2.609375 -1.9375 L 1.21875 -1.9375 L 1.21875 -0.59375 L 3.046875 -0.59375 Z M 3.046875 0 "/></g></g></g><g fill="rgb(100%, 100%, 100%)" fill-opacity="1"><g transform="translate(120.648628, 33.009742)"><g><path d="M 3.65625 0 L 2.734375 0 L 1.53125 -1.9375 L 1.203125 -1.9375 L 1.203125 0 L 0.390625 0 L 0.390625 -3.984375 C 0.390625 -3.992188 0.375 -4.050781 0.34375 -4.15625 C 0.320312 -4.269531 0.304688 -4.332031 0.296875 -4.34375 L 1.796875 -4.34375 C 2.234375 -4.34375 2.585938 -4.25 2.859375 -4.0625 C 3.128906 -3.875 3.265625 -3.570312 3.265625 -3.15625 C 3.265625 -2.914062 3.171875 -2.6875 2.984375 -2.46875 C 2.796875 -2.257812 2.578125 -2.125 2.328125 -2.0625 Z M 2.40625 -3.171875 C 2.40625 -3.347656 2.335938 -3.488281 2.203125 -3.59375 C 2.066406 -3.695312 1.90625 -3.75 1.71875 -3.75 L 1.203125 -3.75 L 1.203125 -2.515625 L 1.578125 -2.515625 C 2.128906 -2.515625 2.40625 -2.734375 2.40625 -3.171875 Z M 2.40625 -3.171875 "/></g></g></g></svg>