<svg xmlns="http://www.w3.org/2000/svg" xmlns:xlink="http://www.w3.org/1999/xlink" width="200" zoomAndPan="magnify" viewBox="0 0 375 374.999991" height="200" preserveAspectRatio="xMidYMid meet" version="1.0"><defs><g><g id="id1"/></g><clipPath id="id2"><path d="M 66.839844 143.289062 L 139.589844 143.289062 L 139.589844 231.789062 L 66.839844 231.789062 Z M 66.839844 143.289062 " clip-rule="nonzero"/></clipPath></defs><path fill="rgb(0%, 64.709473%, 72.938538%)" d="M 92.765625 166.777344 L 101.929688 171.792969 C 102.324219 172.007812 102.75 172.117188 103.199219 172.117188 C 103.652344 172.117188 104.074219 172.007812 104.46875 171.792969 L 113.636719 166.777344 C 114.058594 166.542969 114.394531 166.214844 114.640625 165.796875 C 114.886719 165.378906 115.007812 164.925781 115.007812 164.441406 C 115.007812 163.953125 114.886719 163.503906 114.640625 163.082031 C 114.394531 162.664062 114.058594 162.339844 113.636719 162.101562 L 104.46875 157.09375 C 104.074219 156.875 103.652344 156.769531 103.199219 156.769531 C 102.75 156.769531 102.324219 156.875 101.929688 157.09375 L 92.765625 162.101562 C 92.339844 162.339844 92.003906 162.664062 91.761719 163.082031 C 91.515625 163.503906 91.390625 163.953125 91.390625 164.441406 C 91.390625 164.925781 91.515625 165.378906 91.761719 165.796875 C 92.003906 166.214844 92.339844 166.542969 92.765625 166.777344 Z M 92.765625 166.777344 " fill-opacity="1" fill-rule="nonzero"/><g clip-path="url(#id2)"><path fill="rgb(0%, 64.709473%, 72.938538%)" d="M 139.082031 212.042969 C 139.097656 212.011719 139.113281 211.984375 139.132812 211.957031 C 139.179688 211.871094 139.222656 211.78125 139.261719 211.691406 C 139.261719 211.683594 139.261719 211.679688 139.261719 211.671875 C 139.300781 211.574219 139.335938 211.472656 139.367188 211.371094 L 139.390625 211.28125 C 139.410156 211.207031 139.421875 211.128906 139.433594 211.054688 C 139.433594 211.019531 139.433594 210.984375 139.449219 210.953125 C 139.449219 210.855469 139.46875 210.757812 139.472656 210.660156 L 139.472656 164.433594 C 139.472656 164.324219 139.464844 164.214844 139.449219 164.105469 C 139.449219 164.078125 139.449219 164.046875 139.449219 164.019531 C 139.449219 163.9375 139.417969 163.851562 139.398438 163.765625 L 139.382812 163.699219 C 139.316406 163.488281 139.226562 163.292969 139.113281 163.105469 L 139.074219 163.035156 C 139.03125 162.960938 138.980469 162.890625 138.929688 162.824219 L 138.886719 162.769531 C 138.820312 162.683594 138.75 162.605469 138.675781 162.53125 L 138.628906 162.488281 C 138.5625 162.429688 138.496094 162.375 138.429688 162.320312 L 138.363281 162.269531 C 138.269531 162.203125 138.175781 162.144531 138.074219 162.085938 L 104.46875 143.714844 C 104.074219 143.5 103.652344 143.390625 103.199219 143.390625 C 102.75 143.390625 102.324219 143.5 101.929688 143.714844 L 68.316406 162.09375 C 68.21875 162.152344 68.125 162.210938 68.03125 162.277344 L 67.964844 162.328125 C 67.898438 162.378906 67.832031 162.4375 67.765625 162.496094 L 67.71875 162.542969 C 67.644531 162.613281 67.574219 162.695312 67.507812 162.777344 L 67.464844 162.832031 C 67.414062 162.902344 67.363281 162.972656 67.320312 163.042969 L 67.277344 163.113281 C 67.171875 163.300781 67.085938 163.5 67.027344 163.707031 C 67.027344 163.726562 67.027344 163.75 67.007812 163.777344 C 66.988281 163.859375 66.96875 163.945312 66.957031 164.03125 C 66.957031 164.054688 66.957031 164.085938 66.945312 164.113281 C 66.929688 164.222656 66.921875 164.332031 66.921875 164.441406 L 66.921875 210.667969 C 66.921875 210.765625 66.921875 210.863281 66.945312 210.960938 C 66.945312 210.996094 66.945312 211.027344 66.960938 211.0625 C 66.96875 211.136719 66.984375 211.214844 67.003906 211.289062 L 67.027344 211.378906 C 67.058594 211.480469 67.09375 211.582031 67.132812 211.679688 C 67.132812 211.6875 67.132812 211.695312 67.132812 211.699219 C 67.171875 211.792969 67.214844 211.878906 67.261719 211.96875 C 67.277344 211.992188 67.296875 212.019531 67.3125 212.050781 C 67.328125 212.078125 67.398438 212.179688 67.445312 212.238281 L 67.5 212.3125 C 67.5625 212.390625 67.628906 212.464844 67.703125 212.539062 L 67.769531 212.597656 C 67.824219 212.652344 67.886719 212.703125 67.949219 212.75 L 68.027344 212.8125 C 68.109375 212.871094 68.195312 212.921875 68.292969 212.972656 L 101.929688 231.359375 C 102.324219 231.578125 102.75 231.6875 103.199219 231.6875 C 103.652344 231.6875 104.074219 231.578125 104.46875 231.359375 L 138.101562 212.972656 L 138.117188 212.972656 C 138.203125 212.925781 138.285156 212.871094 138.363281 212.8125 L 138.449219 212.753906 C 138.511719 212.703125 138.570312 212.652344 138.625 212.601562 L 138.691406 212.542969 C 138.765625 212.46875 138.832031 212.394531 138.894531 212.316406 L 138.949219 212.242188 C 138.996094 212.171875 139.039062 212.105469 139.082031 212.042969 Z M 114.480469 196.726562 L 103.199219 202.890625 L 91.917969 196.726562 L 75.117188 187.539062 L 90.683594 179.023438 L 101.925781 185.167969 C 102.320312 185.382812 102.742188 185.492188 103.195312 185.492188 C 103.644531 185.492188 104.070312 185.382812 104.464844 185.167969 L 115.703125 179.023438 L 131.285156 187.539062 L 114.488281 196.722656 Z M 72.222656 168.933594 L 85.144531 176 L 72.222656 183.066406 Z M 72.222656 192.03125 L 85.144531 199.097656 L 72.222656 206.164062 Z M 134.175781 183.066406 L 121.253906 175.988281 L 134.175781 168.925781 Z M 134.175781 192.03125 L 134.175781 206.164062 L 121.257812 199.097656 Z M 103.199219 149.085938 L 131.285156 164.441406 L 114.488281 173.625 L 103.199219 179.789062 L 91.914062 173.621094 L 75.117188 164.4375 Z M 103.199219 225.992188 L 75.113281 210.636719 L 90.683594 202.117188 L 101.925781 208.261719 C 102.320312 208.480469 102.742188 208.585938 103.195312 208.585938 C 103.644531 208.585938 104.070312 208.480469 104.464844 208.261719 L 115.703125 202.117188 L 131.28125 210.636719 Z M 103.199219 225.992188 " fill-opacity="1" fill-rule="nonzero"/></g><g fill="rgb(0%, 64.709473%, 72.938538%)" fill-opacity="1"><g transform="translate(148.502208, 174.803117)"><g><path d="M 8.832031 -5.230469 C 9.902344 -5.839844 10.574219 -6.976562 10.574219 -8.527344 C 10.574219 -11.183594 8.957031 -12.207031 6.71875 -12.207031 L 0.960938 -12.207031 L 0.960938 0 L 3.824219 0 L 3.824219 -4.703125 L 6.144531 -4.703125 L 7.917969 0 L 10.941406 0 Z M 6.320312 -9.648438 C 7.246094 -9.648438 7.742188 -9.230469 7.742188 -8.429688 C 7.742188 -7.597656 7.246094 -7.183594 6.320312 -7.183594 L 3.824219 -7.183594 L 3.824219 -9.648438 Z M 6.320312 -9.648438 "/></g></g></g><g fill="rgb(0%, 64.709473%, 72.938538%)" fill-opacity="1"><g transform="translate(162.803482, 174.803117)"><g><path d="M 7.246094 0 L 7.246094 -4.847656 L 11.613281 -12.207031 L 8.269531 -12.207031 L 5.742188 -7.613281 L 3.214844 -12.207031 L -0.128906 -12.207031 L 4.238281 -4.847656 L 4.238281 0 Z M 7.246094 0 "/></g></g></g><g fill="rgb(0%, 64.709473%, 72.938538%)" fill-opacity="1"><g transform="translate(177.264721, 174.803117)"><g><path d="M 3.070312 0 L 3.726562 -2.191406 L 7.789062 -2.191406 L 8.445312 0 L 11.484375 0 L 7.3125 -12.207031 L 4.207031 -12.207031 L 0.03125 0 Z M 5.757812 -9.023438 L 7.039062 -4.671875 L 4.480469 -4.671875 Z M 5.757812 -9.023438 "/></g></g></g><g fill="rgb(0%, 64.709473%, 72.938538%)" fill-opacity="1"><g transform="translate(191.757948, 174.803117)"><g><path d="M 3.824219 0 L 3.824219 -7.453125 L 8.511719 0 L 11.421875 0 L 11.421875 -12.207031 L 8.558594 -12.207031 L 8.558594 -4.800781 L 3.871094 -12.207031 L 0.960938 -12.207031 L 0.960938 0 Z M 3.824219 0 "/></g></g></g><g fill="rgb(0%, 64.709473%, 72.938538%)" fill-opacity="1"><g transform="translate(207.114974, 174.803117)"><g/></g></g><g fill="rgb(0%, 64.709473%, 72.938538%)" fill-opacity="1"><g transform="translate(214.24997, 174.803117)"><g><path d="M 6.605469 0.273438 C 9.824219 0.273438 11.695312 -1.503906 12.015625 -4.144531 L 8.878906 -4.144531 C 8.6875 -2.863281 7.757812 -2.289062 6.542969 -2.289062 C 4.605469 -2.289062 3.535156 -3.792969 3.535156 -6.109375 C 3.535156 -8.414062 4.605469 -9.902344 6.542969 -9.902344 C 7.757812 -9.902344 8.703125 -9.328125 8.878906 -8.078125 L 12.015625 -8.078125 C 11.695312 -10.703125 9.824219 -12.460938 6.605469 -12.460938 C 2.429688 -12.460938 0.511719 -9.519531 0.511719 -6.109375 C 0.511719 -2.703125 2.429688 0.273438 6.605469 0.273438 Z M 6.605469 0.273438 "/></g></g></g><g fill="rgb(0%, 64.709473%, 72.938538%)" fill-opacity="1"><g transform="translate(229.686967, 174.803117)"><g><path d="M 6.605469 0.273438 C 10.75 0.273438 12.6875 -2.703125 12.6875 -6.109375 C 12.6875 -9.519531 10.75 -12.460938 6.605469 -12.460938 C 2.429688 -12.460938 0.511719 -9.519531 0.511719 -6.109375 C 0.511719 -2.703125 2.429688 0.273438 6.605469 0.273438 Z M 6.605469 -2.289062 C 4.6875 -2.289062 3.535156 -3.792969 3.535156 -6.109375 C 3.535156 -8.414062 4.6875 -9.902344 6.605469 -9.902344 C 8.527344 -9.902344 9.664062 -8.414062 9.664062 -6.109375 C 9.664062 -3.792969 8.527344 -2.289062 6.605469 -2.289062 Z M 6.605469 -2.289062 "/></g></g></g><g fill="rgb(0%, 64.709473%, 72.938538%)" fill-opacity="1"><g transform="translate(245.875789, 174.803117)"><g><path d="M 3.824219 0 L 3.824219 -7.453125 L 8.511719 0 L 11.421875 0 L 11.421875 -12.207031 L 8.558594 -12.207031 L 8.558594 -4.800781 L 3.871094 -12.207031 L 0.960938 -12.207031 L 0.960938 0 Z M 3.824219 0 "/></g></g></g><g fill="rgb(0%, 64.709473%, 72.938538%)" fill-opacity="1"><g transform="translate(261.232821, 174.803117)"><g><path d="M 6.429688 0 L 6.429688 -9.648438 L 9.871094 -9.648438 L 9.871094 -12.207031 L 0.128906 -12.207031 L 0.128906 -9.648438 L 3.566406 -9.648438 L 3.566406 0 Z M 6.429688 0 "/></g></g></g><g fill="rgb(0%, 64.709473%, 72.938538%)" fill-opacity="1"><g transform="translate(274.206415, 174.803117)"><g><path d="M 9.292969 0 L 9.292969 -2.558594 L 3.824219 -2.558594 L 3.824219 -4.832031 L 8.765625 -4.832031 L 8.765625 -7.375 L 3.824219 -7.375 L 3.824219 -9.648438 L 9.292969 -9.648438 L 9.292969 -12.207031 L 0.960938 -12.207031 L 0.960938 0 Z M 9.292969 0 "/></g></g></g><g fill="rgb(0%, 64.709473%, 72.938538%)" fill-opacity="1"><g transform="translate(287.164009, 174.803117)"><g><path d="M 3.824219 0 L 3.824219 -7.453125 L 8.511719 0 L 11.421875 0 L 11.421875 -12.207031 L 8.558594 -12.207031 L 8.558594 -4.800781 L 3.871094 -12.207031 L 0.960938 -12.207031 L 0.960938 0 Z M 3.824219 0 "/></g></g></g><g fill="rgb(0%, 64.709473%, 72.938538%)" fill-opacity="1"><g transform="translate(302.521041, 174.803117)"><g><path d="M 6.429688 0 L 6.429688 -9.648438 L 9.871094 -9.648438 L 9.871094 -12.207031 L 0.128906 -12.207031 L 0.128906 -9.648438 L 3.566406 -9.648438 L 3.566406 0 Z M 6.429688 0 "/></g></g></g><g fill="rgb(0%, 64.709473%, 72.938538%)" fill-opacity="1"><g transform="translate(315.494635, 174.803117)"><g><path d="M 6.605469 0.273438 C 10.75 0.273438 12.6875 -2.703125 12.6875 -6.109375 C 12.6875 -9.519531 10.75 -12.460938 6.605469 -12.460938 C 2.429688 -12.460938 0.511719 -9.519531 0.511719 -6.109375 C 0.511719 -2.703125 2.429688 0.273438 6.605469 0.273438 Z M 6.605469 -2.289062 C 4.6875 -2.289062 3.535156 -3.792969 3.535156 -6.109375 C 3.535156 -8.414062 4.6875 -9.902344 6.605469 -9.902344 C 8.527344 -9.902344 9.664062 -8.414062 9.664062 -6.109375 C 9.664062 -3.792969 8.527344 -2.289062 6.605469 -2.289062 Z M 6.605469 -2.289062 "/></g></g></g><g fill="rgb(32.939148%, 32.939148%, 32.939148%)" fill-opacity="1"><g transform="translate(148.502208, 195.446882)"><g><path d="M 5.953125 -2.578125 C 5.953125 -1.734375 5.648438 -1.066406 5.046875 -0.578125 C 4.453125 -0.0976562 3.726562 0.140625 2.875 0.140625 C 1.769531 0.140625 0.828125 -0.0859375 0.046875 -0.546875 L 0.609375 -1.890625 C 1.234375 -1.304688 1.9375 -1.015625 2.71875 -1.015625 C 3.125 -1.015625 3.472656 -1.125 3.765625 -1.34375 C 4.054688 -1.570312 4.203125 -1.882812 4.203125 -2.28125 C 4.203125 -2.570312 4.101562 -2.828125 3.90625 -3.046875 C 3.71875 -3.273438 3.476562 -3.453125 3.1875 -3.578125 C 2.90625 -3.703125 2.597656 -3.847656 2.265625 -4.015625 C 1.929688 -4.191406 1.617188 -4.367188 1.328125 -4.546875 C 1.046875 -4.722656 0.8125 -4.972656 0.625 -5.296875 C 0.4375 -5.617188 0.34375 -5.992188 0.34375 -6.421875 C 0.34375 -7.242188 0.625 -7.863281 1.1875 -8.28125 C 1.757812 -8.707031 2.523438 -8.921875 3.484375 -8.921875 C 3.835938 -8.921875 4.25 -8.847656 4.71875 -8.703125 C 5.195312 -8.566406 5.5625 -8.398438 5.8125 -8.203125 L 4.984375 -7.171875 C 4.535156 -7.578125 3.984375 -7.78125 3.328125 -7.78125 C 2.984375 -7.78125 2.691406 -7.691406 2.453125 -7.515625 C 2.210938 -7.335938 2.09375 -7.085938 2.09375 -6.765625 C 2.09375 -6.484375 2.1875 -6.238281 2.375 -6.03125 C 2.5625 -5.820312 2.796875 -5.648438 3.078125 -5.515625 C 3.367188 -5.390625 3.679688 -5.238281 4.015625 -5.0625 C 4.359375 -4.882812 4.671875 -4.707031 4.953125 -4.53125 C 5.234375 -4.351562 5.46875 -4.09375 5.65625 -3.75 C 5.851562 -3.414062 5.953125 -3.023438 5.953125 -2.578125 Z M 5.953125 -2.578125 "/></g></g></g><g fill="rgb(32.939148%, 32.939148%, 32.939148%)" fill-opacity="1"><g transform="translate(156.230226, 195.446882)"><g><path d="M 8.609375 -4.375 C 8.609375 -3.0625 8.226562 -1.984375 7.46875 -1.140625 C 6.71875 -0.296875 5.6875 0.125 4.375 0.125 C 3.070312 0.125 2.054688 -0.296875 1.328125 -1.140625 C 0.597656 -1.992188 0.234375 -3.082031 0.234375 -4.40625 C 0.234375 -5.726562 0.597656 -6.8125 1.328125 -7.65625 C 2.066406 -8.5 3.085938 -8.921875 4.390625 -8.921875 C 5.722656 -8.921875 6.757812 -8.5 7.5 -7.65625 C 8.238281 -6.820312 8.609375 -5.726562 8.609375 -4.375 Z M 6.84375 -4.328125 C 6.84375 -4.753906 6.800781 -5.15625 6.71875 -5.53125 C 6.632812 -5.914062 6.503906 -6.28125 6.328125 -6.625 C 6.160156 -6.976562 5.910156 -7.257812 5.578125 -7.46875 C 5.242188 -7.675781 4.851562 -7.78125 4.40625 -7.78125 C 3.96875 -7.78125 3.582031 -7.679688 3.25 -7.484375 C 2.925781 -7.285156 2.675781 -7.019531 2.5 -6.6875 C 2.320312 -6.351562 2.191406 -6 2.109375 -5.625 C 2.023438 -5.257812 1.984375 -4.867188 1.984375 -4.453125 C 1.984375 -4.023438 2.023438 -3.617188 2.109375 -3.234375 C 2.191406 -2.859375 2.320312 -2.492188 2.5 -2.140625 C 2.675781 -1.796875 2.925781 -1.519531 3.25 -1.3125 C 3.582031 -1.113281 3.972656 -1.015625 4.421875 -1.015625 C 4.867188 -1.015625 5.253906 -1.109375 5.578125 -1.296875 C 5.910156 -1.492188 6.160156 -1.757812 6.328125 -2.09375 C 6.503906 -2.425781 6.632812 -2.773438 6.71875 -3.140625 C 6.800781 -3.515625 6.84375 -3.910156 6.84375 -4.328125 Z M 6.84375 -4.328125 "/></g></g></g><g fill="rgb(32.939148%, 32.939148%, 32.939148%)" fill-opacity="1"><g transform="translate(166.610251, 195.446882)"><g><path d="M 5.78125 -7.59375 L 2.46875 -7.59375 L 2.46875 -5.109375 L 5.03125 -5.109375 L 5.03125 -3.921875 L 2.46875 -3.921875 L 2.46875 0 L 0.796875 0 L 0.796875 -8.046875 C 0.796875 -8.054688 0.78125 -8.117188 0.75 -8.234375 C 0.726562 -8.347656 0.703125 -8.460938 0.671875 -8.578125 C 0.648438 -8.703125 0.640625 -8.769531 0.640625 -8.78125 L 5.78125 -8.78125 Z M 5.78125 -7.59375 "/></g></g></g><g fill="rgb(32.939148%, 32.939148%, 32.939148%)" fill-opacity="1"><g transform="translate(174.266275, 195.446882)"><g><path d="M 6.78125 -7.59375 L 4.3125 -7.59375 L 4.3125 0 L 2.59375 0 L 2.59375 -7.59375 L 0.15625 -7.59375 L 0.15625 -8.78125 L 6.78125 -8.78125 Z M 6.78125 -7.59375 "/></g></g></g><g fill="rgb(32.939148%, 32.939148%, 32.939148%)" fill-opacity="1"><g transform="translate(182.738296, 195.446882)"><g><path d="M 10.890625 -8.78125 L 8.453125 0.03125 L 6.96875 0.03125 C 6.882812 -0.28125 6.738281 -0.796875 6.53125 -1.515625 C 6.332031 -2.242188 6.160156 -2.875 6.015625 -3.40625 C 5.867188 -3.945312 5.734375 -4.46875 5.609375 -4.96875 C 5.503906 -5.445312 5.425781 -5.894531 5.375 -6.3125 C 5.269531 -5.601562 5.132812 -4.941406 4.96875 -4.328125 L 3.78125 0.03125 L 2.25 0.03125 L -0.171875 -8.78125 L 1.484375 -8.78125 C 2.328125 -5.738281 2.789062 -4.046875 2.875 -3.703125 C 2.976562 -3.273438 3.070312 -2.769531 3.15625 -2.1875 C 3.226562 -2.707031 3.367188 -3.363281 3.578125 -4.15625 L 4.84375 -8.78125 L 6.234375 -8.78125 C 6.328125 -8.425781 6.472656 -7.894531 6.671875 -7.1875 C 6.878906 -6.476562 7.054688 -5.84375 7.203125 -5.28125 C 7.359375 -4.71875 7.5 -4.1875 7.625 -3.6875 C 7.726562 -3.289062 7.816406 -2.789062 7.890625 -2.1875 C 7.984375 -2.875 8.117188 -3.53125 8.296875 -4.15625 L 9.5625 -8.78125 Z M 10.890625 -8.78125 "/></g></g></g><g fill="rgb(32.939148%, 32.939148%, 32.939148%)" fill-opacity="1"><g transform="translate(195.002327, 195.446882)"><g><path d="M 7.546875 0 L 5.765625 0 L 4.90625 -2.515625 L 2.3125 -2.515625 L 1.421875 0 L 0.03125 0 L 3.125 -8.78125 L 4.4375 -8.78125 Z M 4.515625 -3.703125 C 4.128906 -4.867188 3.820312 -5.867188 3.59375 -6.703125 C 3.320312 -5.703125 3.03125 -4.703125 2.71875 -3.703125 Z M 4.515625 -3.703125 "/></g></g></g><g fill="rgb(32.939148%, 32.939148%, 32.939148%)" fill-opacity="1"><g transform="translate(204.110356, 195.446882)"><g><path d="M 7.40625 0 L 5.53125 0 L 3.09375 -3.90625 L 2.4375 -3.90625 L 2.4375 0 L 0.796875 0 L 0.796875 -8.046875 C 0.796875 -8.066406 0.765625 -8.1875 0.703125 -8.40625 C 0.648438 -8.625 0.617188 -8.75 0.609375 -8.78125 L 3.625 -8.78125 C 4.507812 -8.78125 5.222656 -8.59375 5.765625 -8.21875 C 6.316406 -7.84375 6.59375 -7.234375 6.59375 -6.390625 C 6.59375 -5.890625 6.398438 -5.421875 6.015625 -4.984375 C 5.640625 -4.554688 5.207031 -4.28125 4.71875 -4.15625 Z M 4.84375 -6.390625 C 4.84375 -6.765625 4.710938 -7.054688 4.453125 -7.265625 C 4.191406 -7.472656 3.863281 -7.578125 3.46875 -7.578125 L 2.4375 -7.578125 L 2.4375 -5.09375 L 3.203125 -5.09375 C 4.296875 -5.09375 4.84375 -5.523438 4.84375 -6.390625 Z M 4.84375 -6.390625 "/></g></g></g><g fill="rgb(32.939148%, 32.939148%, 32.939148%)" fill-opacity="1"><g transform="translate(212.738383, 195.446882)"><g><path d="M 6.140625 0 L 0.796875 0 L 0.796875 -8.046875 L 0.625 -8.78125 L 6.140625 -8.78125 L 6.140625 -7.59375 L 2.453125 -7.59375 L 2.453125 -5.109375 L 5.28125 -5.109375 L 5.28125 -3.921875 L 2.453125 -3.921875 L 2.453125 -1.1875 L 6.140625 -1.1875 Z M 6.140625 0 "/></g></g></g><g fill="rgb(32.939148%, 32.939148%, 32.939148%)" fill-opacity="1"><g transform="translate(220.8624, 195.446882)"><g/></g></g><g fill="rgb(32.939148%, 32.939148%, 32.939148%)" fill-opacity="1"><g transform="translate(225.158414, 195.446882)"><g><path d="M 8.15625 -4.375 C 8.15625 -3.03125 7.742188 -1.953125 6.921875 -1.140625 C 6.160156 -0.378906 5.160156 0 3.921875 0 L 0.796875 0 L 0.796875 -8.046875 C 0.796875 -8.054688 0.765625 -8.175781 0.703125 -8.40625 C 0.648438 -8.632812 0.617188 -8.757812 0.609375 -8.78125 L 3.9375 -8.78125 C 5.257812 -8.78125 6.289062 -8.378906 7.03125 -7.578125 C 7.78125 -6.773438 8.15625 -5.707031 8.15625 -4.375 Z M 6.390625 -4.328125 C 6.390625 -4.910156 6.304688 -5.4375 6.140625 -5.90625 C 5.984375 -6.375 5.707031 -6.769531 5.3125 -7.09375 C 4.914062 -7.425781 4.421875 -7.59375 3.828125 -7.59375 L 2.453125 -7.59375 L 2.453125 -1.1875 L 3.859375 -1.1875 C 4.296875 -1.1875 4.679688 -1.269531 5.015625 -1.4375 C 5.347656 -1.613281 5.609375 -1.851562 5.796875 -2.15625 C 5.992188 -2.457031 6.140625 -2.789062 6.234375 -3.15625 C 6.335938 -3.519531 6.390625 -3.910156 6.390625 -4.328125 Z M 6.390625 -4.328125 "/></g></g></g><g fill="rgb(32.939148%, 32.939148%, 32.939148%)" fill-opacity="1"><g transform="translate(235.082438, 195.446882)"><g><path d="M 6.140625 0 L 0.796875 0 L 0.796875 -8.046875 L 0.625 -8.78125 L 6.140625 -8.78125 L 6.140625 -7.59375 L 2.453125 -7.59375 L 2.453125 -5.109375 L 5.28125 -5.109375 L 5.28125 -3.921875 L 2.453125 -3.921875 L 2.453125 -1.1875 L 6.140625 -1.1875 Z M 6.140625 0 "/></g></g></g><g fill="rgb(32.939148%, 32.939148%, 32.939148%)" fill-opacity="1"><g transform="translate(243.206455, 195.446882)"><g><path d="M 7.234375 -8.765625 L 4.203125 0.03125 L 3.03125 0.03125 L 0 -8.765625 L 1.75 -8.765625 C 2.84375 -5.597656 3.414062 -3.925781 3.46875 -3.75 C 3.582031 -3.40625 3.695312 -2.953125 3.8125 -2.390625 C 3.925781 -2.929688 4.082031 -3.476562 4.28125 -4.03125 L 5.90625 -8.765625 Z M 7.234375 -8.765625 "/></g></g></g><g fill="rgb(32.939148%, 32.939148%, 32.939148%)" fill-opacity="1"><g transform="translate(251.978489, 195.446882)"><g><path d="M 6.140625 0 L 0.796875 0 L 0.796875 -8.046875 L 0.625 -8.78125 L 6.140625 -8.78125 L 6.140625 -7.59375 L 2.453125 -7.59375 L 2.453125 -5.109375 L 5.28125 -5.109375 L 5.28125 -3.921875 L 2.453125 -3.921875 L 2.453125 -1.1875 L 6.140625 -1.1875 Z M 6.140625 0 "/></g></g></g><g fill="rgb(32.939148%, 32.939148%, 32.939148%)" fill-opacity="1"><g transform="translate(260.102511, 195.446882)"><g><path d="M 5.90625 0 L 0.796875 0 L 0.796875 -8.046875 C 0.796875 -8.054688 0.78125 -8.117188 0.75 -8.234375 C 0.726562 -8.347656 0.703125 -8.460938 0.671875 -8.578125 C 0.648438 -8.703125 0.640625 -8.769531 0.640625 -8.78125 L 2.453125 -8.78125 L 2.453125 -1.1875 L 5.90625 -1.1875 Z M 5.90625 0 "/></g></g></g><g fill="rgb(32.939148%, 32.939148%, 32.939148%)" fill-opacity="1"><g transform="translate(267.806536, 195.446882)"><g><path d="M 8.609375 -4.375 C 8.609375 -3.0625 8.226562 -1.984375 7.46875 -1.140625 C 6.71875 -0.296875 5.6875 0.125 4.375 0.125 C 3.070312 0.125 2.054688 -0.296875 1.328125 -1.140625 C 0.597656 -1.992188 0.234375 -3.082031 0.234375 -4.40625 C 0.234375 -5.726562 0.597656 -6.8125 1.328125 -7.65625 C 2.066406 -8.5 3.085938 -8.921875 4.390625 -8.921875 C 5.722656 -8.921875 6.757812 -8.5 7.5 -7.65625 C 8.238281 -6.820312 8.609375 -5.726562 8.609375 -4.375 Z M 6.84375 -4.328125 C 6.84375 -4.753906 6.800781 -5.15625 6.71875 -5.53125 C 6.632812 -5.914062 6.503906 -6.28125 6.328125 -6.625 C 6.160156 -6.976562 5.910156 -7.257812 5.578125 -7.46875 C 5.242188 -7.675781 4.851562 -7.78125 4.40625 -7.78125 C 3.96875 -7.78125 3.582031 -7.679688 3.25 -7.484375 C 2.925781 -7.285156 2.675781 -7.019531 2.5 -6.6875 C 2.320312 -6.351562 2.191406 -6 2.109375 -5.625 C 2.023438 -5.257812 1.984375 -4.867188 1.984375 -4.453125 C 1.984375 -4.023438 2.023438 -3.617188 2.109375 -3.234375 C 2.191406 -2.859375 2.320312 -2.492188 2.5 -2.140625 C 2.675781 -1.796875 2.925781 -1.519531 3.25 -1.3125 C 3.582031 -1.113281 3.972656 -1.015625 4.421875 -1.015625 C 4.867188 -1.015625 5.253906 -1.109375 5.578125 -1.296875 C 5.910156 -1.492188 6.160156 -1.757812 6.328125 -2.09375 C 6.503906 -2.425781 6.632812 -2.773438 6.71875 -3.140625 C 6.800781 -3.515625 6.84375 -3.910156 6.84375 -4.328125 Z M 6.84375 -4.328125 "/></g></g></g><g fill="rgb(32.939148%, 32.939148%, 32.939148%)" fill-opacity="1"><g transform="translate(278.186567, 195.446882)"><g><path d="M 6.59375 -6.15625 C 6.59375 -5.289062 6.285156 -4.632812 5.671875 -4.1875 C 5.054688 -3.75 4.304688 -3.53125 3.421875 -3.53125 L 2.4375 -3.53125 L 2.4375 0 L 0.796875 0 L 0.796875 -8.046875 C 0.796875 -8.066406 0.765625 -8.1875 0.703125 -8.40625 C 0.648438 -8.625 0.617188 -8.75 0.609375 -8.78125 L 3.390625 -8.78125 C 4.359375 -8.78125 5.132812 -8.570312 5.71875 -8.15625 C 6.300781 -7.75 6.59375 -7.082031 6.59375 -6.15625 Z M 4.84375 -6.15625 C 4.84375 -6.601562 4.722656 -6.953125 4.484375 -7.203125 C 4.253906 -7.460938 3.914062 -7.59375 3.46875 -7.59375 L 2.453125 -7.59375 L 2.453125 -4.6875 L 3.453125 -4.6875 C 3.890625 -4.6875 4.226562 -4.820312 4.46875 -5.09375 C 4.71875 -5.363281 4.84375 -5.71875 4.84375 -6.15625 Z M 4.84375 -6.15625 "/></g></g></g><g fill="rgb(32.939148%, 32.939148%, 32.939148%)" fill-opacity="1"><g transform="translate(286.62259, 195.446882)"><g><path d="M 6.140625 0 L 0.796875 0 L 0.796875 -8.046875 L 0.625 -8.78125 L 6.140625 -8.78125 L 6.140625 -7.59375 L 2.453125 -7.59375 L 2.453125 -5.109375 L 5.28125 -5.109375 L 5.28125 -3.921875 L 2.453125 -3.921875 L 2.453125 -1.1875 L 6.140625 -1.1875 Z M 6.140625 0 "/></g></g></g><g fill="rgb(32.939148%, 32.939148%, 32.939148%)" fill-opacity="1"><g transform="translate(294.746613, 195.446882)"><g><path d="M 7.40625 0 L 5.53125 0 L 3.09375 -3.90625 L 2.4375 -3.90625 L 2.4375 0 L 0.796875 0 L 0.796875 -8.046875 C 0.796875 -8.066406 0.765625 -8.1875 0.703125 -8.40625 C 0.648438 -8.625 0.617188 -8.75 0.609375 -8.78125 L 3.625 -8.78125 C 4.507812 -8.78125 5.222656 -8.59375 5.765625 -8.21875 C 6.316406 -7.84375 6.59375 -7.234375 6.59375 -6.390625 C 6.59375 -5.890625 6.398438 -5.421875 6.015625 -4.984375 C 5.640625 -4.554688 5.207031 -4.28125 4.71875 -4.15625 Z M 4.84375 -6.390625 C 4.84375 -6.765625 4.710938 -7.054688 4.453125 -7.265625 C 4.191406 -7.472656 3.863281 -7.578125 3.46875 -7.578125 L 2.4375 -7.578125 L 2.4375 -5.09375 L 3.203125 -5.09375 C 4.296875 -5.09375 4.84375 -5.523438 4.84375 -6.390625 Z M 4.84375 -6.390625 "/></g></g></g></svg>